<svg xmlns="http://www.w3.org/2000/svg" viewBox="0 0 800 600" width="800" height="600">
  <defs>
    <linearGradient id="grad1" x1="0%" y1="0%" x2="100%" y2="100%">
      <stop offset="0%" style="stop-color:#3b82f6;stop-opacity:1" />
      <stop offset="100%" style="stop-color:#1d4ed8;stop-opacity:1" />
    </linearGradient>
    <linearGradient id="grad2" x1="0%" y1="0%" x2="100%" y2="100%">
      <stop offset="0%" style="stop-color:#10b981;stop-opacity:1" />
      <stop offset="100%" style="stop-color:#059669;stop-opacity:1" />
    </linearGradient>
    <linearGradient id="grad3" x1="0%" y1="0%" x2="100%" y2="100%">
      <stop offset="0%" style="stop-color:#f59e0b;stop-opacity:1" />
      <stop offset="100%" style="stop-color:#d97706;stop-opacity:1" />
    </linearGradient>
  </defs>
  
  <!-- 背景 -->
  <rect width="800" height="600" fill="#f8fafc"/>
  
  <!-- 标题 -->
  <text x="400" y="40" text-anchor="middle" font-family="Arial, sans-serif" font-size="24" font-weight="bold" fill="#1e293b">倒排索引结构</text>
  <text x="400" y="60" text-anchor="middle" font-family="Arial, sans-serif" font-size="14" fill="#64748b">Inverted Index for Text Retrieval</text>
  
  <!-- 文档集合 -->
  <rect x="50" y="90" width="200" height="180" rx="10" fill="url(#grad1)" stroke="#1d4ed8" stroke-width="2"/>
  <text x="150" y="115" text-anchor="middle" font-family="Arial, sans-serif" font-size="16" font-weight="bold" fill="white">文档集合</text>
  
  <!-- 文档1 -->
  <rect x="70" y="130" width="160" height="30" rx="5" fill="#ffffff" stroke="#1d4ed8" stroke-width="1"/>
  <text x="80" y="145" font-family="Arial, sans-serif" font-size="10" font-weight="bold" fill="#1d4ed8">Doc1:</text>
  <text x="80" y="155" font-family="Arial, sans-serif" font-size="9" fill="#64748b">机器学习算法原理</text>
  
  <!-- 文档2 -->
  <rect x="70" y="170" width="160" height="30" rx="5" fill="#ffffff" stroke="#1d4ed8" stroke-width="1"/>
  <text x="80" y="185" font-family="Arial, sans-serif" font-size="10" font-weight="bold" fill="#1d4ed8">Doc2:</text>
  <text x="80" y="195" font-family="Arial, sans-serif" font-size="9" fill="#64748b">深度学习神经网络</text>
  
  <!-- 文档3 -->
  <rect x="70" y="210" width="160" height="30" rx="5" fill="#ffffff" stroke="#1d4ed8" stroke-width="1"/>
  <text x="80" y="225" font-family="Arial, sans-serif" font-size="10" font-weight="bold" fill="#1d4ed8">Doc3:</text>
  <text x="80" y="235" font-family="Arial, sans-serif" font-size="9" fill="#64748b">算法优化与实现</text>
  
  <!-- 文档4 -->
  <rect x="70" y="250" width="160" height="30" rx="5" fill="#ffffff" stroke="#1d4ed8" stroke-width="1"/>
  <text x="80" y="265" font-family="Arial, sans-serif" font-size="10" font-weight="bold" fill="#1d4ed8">Doc4:</text>
  <text x="80" y="275" font-family="Arial, sans-serif" font-size="9" fill="#64748b">机器学习应用案例</text>
  
  <!-- 箭头 -->
  <defs>
    <marker id="arrowhead" markerWidth="10" markerHeight="7" refX="9" refY="3.5" orient="auto">
      <polygon points="0 0, 10 3.5, 0 7" fill="#64748b" />
    </marker>
  </defs>
  
  <line x1="250" y1="180" x2="320" y2="180" stroke="#64748b" stroke-width="3" marker-end="url(#arrowhead)"/>
  <text x="285" y="170" text-anchor="middle" font-family="Arial, sans-serif" font-size="12" font-weight="bold" fill="#64748b">索引构建</text>
  
  <!-- 倒排索引表 -->
  <rect x="350" y="90" width="400" height="400" rx="10" fill="url(#grad2)" stroke="#059669" stroke-width="2"/>
  <text x="550" y="115" text-anchor="middle" font-family="Arial, sans-serif" font-size="16" font-weight="bold" fill="white">倒排索引表</text>
  
  <!-- 词汇表头 -->
  <rect x="370" y="130" width="100" height="25" rx="3" fill="#ffffff" stroke="#059669" stroke-width="1"/>
  <text x="420" y="147" text-anchor="middle" font-family="Arial, sans-serif" font-size="12" font-weight="bold" fill="#059669">词汇 (Term)</text>
  
  <rect x="480" y="130" width="120" height="25" rx="3" fill="#ffffff" stroke="#059669" stroke-width="1"/>
  <text x="540" y="147" text-anchor="middle" font-family="Arial, sans-serif" font-size="12" font-weight="bold" fill="#059669">文档频率 (DF)</text>
  
  <rect x="610" y="130" width="120" height="25" rx="3" fill="#ffffff" stroke="#059669" stroke-width="1"/>
  <text x="670" y="147" text-anchor="middle" font-family="Arial, sans-serif" font-size="12" font-weight="bold" fill="#059669">倒排列表</text>
  
  <!-- 索引条目 -->
  <!-- 机器 -->
  <rect x="370" y="165" width="100" height="25" rx="3" fill="#f1f5f9" stroke="#cbd5e1" stroke-width="1"/>
  <text x="420" y="182" text-anchor="middle" font-family="Arial, sans-serif" font-size="11" font-weight="bold" fill="#334155">机器</text>
  
  <rect x="480" y="165" width="120" height="25" rx="3" fill="#f1f5f9" stroke="#cbd5e1" stroke-width="1"/>
  <text x="540" y="182" text-anchor="middle" font-family="Arial, sans-serif" font-size="11" fill="#64748b">2</text>
  
  <rect x="610" y="165" width="120" height="25" rx="3" fill="#fef3c7" stroke="#f59e0b" stroke-width="1"/>
  <text x="670" y="182" text-anchor="middle" font-family="Arial, sans-serif" font-size="10" fill="#92400e">Doc1, Doc4</text>
  
  <!-- 学习 -->
  <rect x="370" y="200" width="100" height="25" rx="3" fill="#f1f5f9" stroke="#cbd5e1" stroke-width="1"/>
  <text x="420" y="217" text-anchor="middle" font-family="Arial, sans-serif" font-size="11" font-weight="bold" fill="#334155">学习</text>
  
  <rect x="480" y="200" width="120" height="25" rx="3" fill="#f1f5f9" stroke="#cbd5e1" stroke-width="1"/>
  <text x="540" y="217" text-anchor="middle" font-family="Arial, sans-serif" font-size="11" fill="#64748b">3</text>
  
  <rect x="610" y="200" width="120" height="25" rx="3" fill="#fef3c7" stroke="#f59e0b" stroke-width="1"/>
  <text x="670" y="217" text-anchor="middle" font-family="Arial, sans-serif" font-size="9" fill="#92400e">Doc1, Doc2, Doc4</text>
  
  <!-- 算法 -->
  <rect x="370" y="235" width="100" height="25" rx="3" fill="#f1f5f9" stroke="#cbd5e1" stroke-width="1"/>
  <text x="420" y="252" text-anchor="middle" font-family="Arial, sans-serif" font-size="11" font-weight="bold" fill="#334155">算法</text>
  
  <rect x="480" y="235" width="120" height="25" rx="3" fill="#f1f5f9" stroke="#cbd5e1" stroke-width="1"/>
  <text x="540" y="252" text-anchor="middle" font-family="Arial, sans-serif" font-size="11" fill="#64748b">2</text>
  
  <rect x="610" y="235" width="120" height="25" rx="3" fill="#fef3c7" stroke="#f59e0b" stroke-width="1"/>
  <text x="670" y="252" text-anchor="middle" font-family="Arial, sans-serif" font-size="10" fill="#92400e">Doc1, Doc3</text>
  
  <!-- 深度 -->
  <rect x="370" y="270" width="100" height="25" rx="3" fill="#f1f5f9" stroke="#cbd5e1" stroke-width="1"/>
  <text x="420" y="287" text-anchor="middle" font-family="Arial, sans-serif" font-size="11" font-weight="bold" fill="#334155">深度</text>
  
  <rect x="480" y="270" width="120" height="25" rx="3" fill="#f1f5f9" stroke="#cbd5e1" stroke-width="1"/>
  <text x="540" y="287" text-anchor="middle" font-family="Arial, sans-serif" font-size="11" fill="#64748b">1</text>
  
  <rect x="610" y="270" width="120" height="25" rx="3" fill="#fef3c7" stroke="#f59e0b" stroke-width="1"/>
  <text x="670" y="287" text-anchor="middle" font-family="Arial, sans-serif" font-size="10" fill="#92400e">Doc2</text>
  
  <!-- 神经网络 -->
  <rect x="370" y="305" width="100" height="25" rx="3" fill="#f1f5f9" stroke="#cbd5e1" stroke-width="1"/>
  <text x="420" y="322" text-anchor="middle" font-family="Arial, sans-serif" font-size="11" font-weight="bold" fill="#334155">神经网络</text>
  
  <rect x="480" y="305" width="120" height="25" rx="3" fill="#f1f5f9" stroke="#cbd5e1" stroke-width="1"/>
  <text x="540" y="322" text-anchor="middle" font-family="Arial, sans-serif" font-size="11" fill="#64748b">1</text>
  
  <rect x="610" y="305" width="120" height="25" rx="3" fill="#fef3c7" stroke="#f59e0b" stroke-width="1"/>
  <text x="670" y="322" text-anchor="middle" font-family="Arial, sans-serif" font-size="10" fill="#92400e">Doc2</text>
  
  <!-- 优化 -->
  <rect x="370" y="340" width="100" height="25" rx="3" fill="#f1f5f9" stroke="#cbd5e1" stroke-width="1"/>
  <text x="420" y="357" text-anchor="middle" font-family="Arial, sans-serif" font-size="11" font-weight="bold" fill="#334155">优化</text>
  
  <rect x="480" y="340" width="120" height="25" rx="3" fill="#f1f5f9" stroke="#cbd5e1" stroke-width="1"/>
  <text x="540" y="357" text-anchor="middle" font-family="Arial, sans-serif" font-size="11" fill="#64748b">1</text>
  
  <rect x="610" y="340" width="120" height="25" rx="3" fill="#fef3c7" stroke="#f59e0b" stroke-width="1"/>
  <text x="670" y="357" text-anchor="middle" font-family="Arial, sans-serif" font-size="10" fill="#92400e">Doc3</text>
  
  <!-- 应用 -->
  <rect x="370" y="375" width="100" height="25" rx="3" fill="#f1f5f9" stroke="#cbd5e1" stroke-width="1"/>
  <text x="420" y="392" text-anchor="middle" font-family="Arial, sans-serif" font-size="11" font-weight="bold" fill="#334155">应用</text>
  
  <rect x="480" y="375" width="120" height="25" rx="3" fill="#f1f5f9" stroke="#cbd5e1" stroke-width="1"/>
  <text x="540" y="392" text-anchor="middle" font-family="Arial, sans-serif" font-size="11" fill="#64748b">1</text>
  
  <rect x="610" y="375" width="120" height="25" rx="3" fill="#fef3c7" stroke="#f59e0b" stroke-width="1"/>
  <text x="670" y="392" text-anchor="middle" font-family="Arial, sans-serif" font-size="10" fill="#92400e">Doc4</text>
  
  <!-- 案例 -->
  <rect x="370" y="410" width="100" height="25" rx="3" fill="#f1f5f9" stroke="#cbd5e1" stroke-width="1"/>
  <text x="420" y="427" text-anchor="middle" font-family="Arial, sans-serif" font-size="11" font-weight="bold" fill="#334155">案例</text>
  
  <rect x="480" y="410" width="120" height="25" rx="3" fill="#f1f5f9" stroke="#cbd5e1" stroke-width="1"/>
  <text x="540" y="427" text-anchor="middle" font-family="Arial, sans-serif" font-size="11" fill="#64748b">1</text>
  
  <rect x="610" y="410" width="120" height="25" rx="3" fill="#fef3c7" stroke="#f59e0b" stroke-width="1"/>
  <text x="670" y="427" text-anchor="middle" font-family="Arial, sans-serif" font-size="10" fill="#92400e">Doc4</text>
  
  <!-- 查询示例 -->
  <rect x="50" y="300" width="200" height="80" rx="10" fill="url(#grad3)" stroke="#d97706" stroke-width="2"/>
  <text x="150" y="325" text-anchor="middle" font-family="Arial, sans-serif" font-size="14" font-weight="bold" fill="white">查询示例</text>
  <text x="150" y="345" text-anchor="middle" font-family="Arial, sans-serif" font-size="12" fill="white">查询: "机器学习"</text>
  <text x="150" y="365" text-anchor="middle" font-family="Arial, sans-serif" font-size="11" fill="white">结果: Doc1, Doc4</text>
  
  <!-- 查询箭头 -->
  <defs>
    <marker id="arrowhead2" markerWidth="10" markerHeight="7" refX="9" refY="3.5" orient="auto">
      <polygon points="0 0, 10 3.5, 0 7" fill="#dc2626" />
    </marker>
  </defs>
  
  <path d="M 250 340 Q 300 300 350 200" stroke="#dc2626" stroke-width="3" fill="none" marker-end="url(#arrowhead2)"/>
  
  <!-- 优势说明 -->
  <rect x="50" y="510" width="700" height="70" rx="8" fill="#ecfdf5" stroke="#10b981" stroke-width="2"/>
  <text x="70" y="535" font-family="Arial, sans-serif" font-size="14" font-weight="bold" fill="#065f46">倒排索引优势：</text>
  <text x="70" y="555" font-family="Arial, sans-serif" font-size="12" fill="#065f46">• 快速检索：O(1) 时间复杂度定位词汇，快速获取包含该词的所有文档</text>
  <text x="70" y="570" font-family="Arial, sans-serif" font-size="12" fill="#065f46">• 空间效率：只存储出现的词汇，避免稀疏矩阵的空间浪费</text>
</svg>